<svg width="128" height="128" viewBox="0 0 128 128" fill="none" xmlns="http://www.w3.org/2000/svg">
<circle cx="64" cy="64" r="64" fill="#1B0A2A"/>
<ellipse cx="63.6498" cy="71.6247" rx="31.5731" ry="22.2927" transform="rotate(-35 63.6498 71.6247)" fill="#D9D9D9"/>
<ellipse cx="57.0187" cy="69.9097" rx="13.9971" ry="8.70281" transform="rotate(-46 57.0187 69.9097)" fill="#1B0A2A"/>
<ellipse cx="58.6553" cy="63" rx="6.03804" ry="3.82433" transform="rotate(-46 58.6553 63)" fill="white"/>
<ellipse cx="55.3364" cy="91.8976" rx="4.61359" ry="3.34365" transform="rotate(13 55.3364 91.8976)" fill="#AB7877"/>
<ellipse cx="57.3428" cy="46.106" rx="3" ry="8" transform="rotate(22 57.3428 46.106)" fill="#D9D9D9"/>
<ellipse cx="72.4778" cy="31.9483" rx="20" ry="4" transform="rotate(143 72.4778 31.9483)" fill="#D9D9D9"/>
<ellipse cx="42.9625" cy="55.2593" rx="3" ry="8" transform="rotate(-4 42.9625 55.2593)" fill="#D9D9D9"/>
<ellipse cx="50.3596" cy="35.8997" rx="20" ry="4" transform="rotate(117 50.3596 35.8997)" fill="#D9D9D9"/>
</svg>
